<?xml version="1.0" encoding="utf-8"?>
<!-- Generator: Adobe Illustrator 22.1.0, SVG Export Plug-In . SVG Version: 6.00 Build 0)  -->
<svg version="1.1" id="Layer_1" xmlns="http://www.w3.org/2000/svg" xmlns:xlink="http://www.w3.org/1999/xlink" x="0px" y="0px"
	 width="300px" height="38px" viewBox="0 0 300 38" enable-background="new 0 0 300 38" xml:space="preserve">
<path d="M35.82,4.99c-3.08,0.21-4.26,0.92-4.52,3.03c-0.15,1.39-0.26,3.59-0.26,8.31v4.21c0,6.06-0.92,10.42-3.9,13.55
	c-2.37,2.46-5.81,3.54-9.19,3.54c-2.98,0-5.95-0.72-8.22-2.46c-3.08-2.36-4.51-6.21-4.51-12.22V10.17c0-4.62-0.4-4.82-4.47-5.18
	V3.55h13.3v1.44c-4.05,0.25-4.46,0.56-4.46,5.18v11.65c0,8.26,3.28,12.99,9.65,12.99c7.39,0,9.7-6.16,9.7-14.63v-3.85
	c0-4.73-0.16-6.88-0.36-8.47c-0.31-2-1.38-2.62-4.98-2.87V3.55h12.22V4.99z M76.81,36.92v-1.44c-4.47-0.41-4.62-0.67-4.78-6.11
	l-0.51-18.58c-0.16-5.29,0.21-5.39,4.72-5.8V3.55h-8.72L55.66,29.22L43.95,3.55h-8.42v1.44c4.67,0.46,4.93,0.66,4.46,7.34
	l-0.72,10.68c-0.41,5.34-0.72,7.59-0.98,9.39c-0.36,2.16-1.39,2.72-4.36,3.08v1.44h11.96v-1.44c-3.39-0.36-4.62-0.72-4.72-3.18
	c-0.05-2.06-0.05-4.31,0.15-8.52l0.78-14.63h0.1l11.5,27.41h1.03L67.26,8.43h0.21l0.15,20.94c0.05,5.44-0.15,5.7-4.31,6.11v1.44
	H76.81z M97.4,34.92l-0.51-1.34c-0.52,0.31-1.24,0.57-1.85,0.57c-0.87,0-1.79-0.77-1.79-3.08v-9.55c0-2.67-0.52-4.77-2.31-6.27
	c-1.13-0.92-2.67-1.38-4.21-1.38c-2.93,0.57-6.27,2.57-7.7,3.6c-0.98,0.72-1.65,1.28-1.65,2.05c0,1.18,1.34,2.21,2.26,2.21
	c0.72,0,1.28-0.36,1.49-1.23c0.42-1.54,0.88-2.67,1.54-3.34c0.52-0.62,1.28-1.03,2.31-1.03c2.57,0,4.31,2.1,4.31,5.8v0.92
	c-1.13,0.93-4.88,2.31-7.96,3.34c-2.82,0.98-4.16,2.57-4.16,5.08c0,3.23,2.51,6.26,6.16,6.26c1.54,0,4-1.9,6.06-3.28
	c0.26,0.88,0.57,1.59,1.24,2.31c0.57,0.52,1.64,0.97,2.41,0.97L97.4,34.92z M89.29,32.6c-0.98,0.92-2.77,1.8-4.11,1.85
	c-1.59,0-3.64-1.29-3.64-3.96c0-1.84,1.13-2.82,3.13-3.74c1.08-0.52,3.54-1.59,4.62-2.16V32.6z M112.83,20.23
	c-0.15-1.29-0.72-4.31-1.13-5.49c-1.08-0.41-2.46-0.92-4.57-0.87c-4.72,0-7.8,3.03-7.8,6.62c0,3.95,3.34,5.64,6.42,7.08
	c2.57,1.18,4.05,2.41,4.05,4.67c0,2.16-1.74,3.59-3.64,3.59c-3.08,0-5.39-2.98-6.32-6.37l-1.33,0.26c0,1.85,0.47,5.34,0.82,6.06
	c0.93,0.77,3.29,1.74,5.91,1.74c4.1,0,8.47-2.41,8.47-7.08c0-3.54-2.62-5.39-6.47-6.98c-2.31-0.98-4.36-2.21-4.36-4.47
	c0-2.01,1.39-3.54,3.33-3.54c2.52,0,4.31,2.05,5.29,5.08L112.83,20.23z M129.11,20.23c-0.16-1.29-0.72-4.31-1.13-5.49
	c-1.08-0.41-2.46-0.92-4.56-0.87c-4.73,0-7.81,3.03-7.81,6.62c0,3.95,3.34,5.64,6.42,7.08c2.57,1.18,4.06,2.41,4.06,4.67
	c0,2.16-1.75,3.59-3.64,3.59c-3.08,0-5.39-2.98-6.31-6.37l-1.34,0.26c0,1.85,0.46,5.34,0.82,6.06c0.93,0.77,3.29,1.74,5.9,1.74
	c4.11,0,8.47-2.41,8.47-7.08c0-3.54-2.62-5.39-6.46-6.98c-2.31-0.98-4.36-2.21-4.36-4.47c0-2.01,1.39-3.54,3.34-3.54
	c2.51,0,4.31,2.05,5.29,5.08L129.11,20.23z"/>
<path fill="#881C1C" d="M152.34,36.92v-1.44c3.23-0.41,3.7-0.82,3.02-2.82c-0.66-2.01-1.69-4.77-2.82-7.9h-10.94
	c-0.82,2.31-1.59,4.46-2.26,6.62c-1.12,3.23-0.66,3.74,3.19,4.1v1.44h-11.14v-1.44c3.24-0.46,3.95-0.77,5.75-5.29l10.63-26.95
	l1.59-0.46c3.18,8.83,6.62,18.58,9.91,27.51c1.65,4.42,2.31,4.88,5.65,5.19v1.44H152.34z M147.31,9.45h-0.1
	c-1.64,4.41-3.29,8.88-4.83,13.09h9.44L147.31,9.45z M204.24,36.92v-1.33c-2.92-0.31-3.34-0.51-3.34-3.96v-9.9
	c0-5.03-2.51-7.86-6.51-7.86c-1.44,0-2.78,0.62-3.85,1.33c-1.29,0.77-2.77,1.75-4.27,2.88c-1.03-2.67-3.23-4.21-5.69-4.21
	c-1.64,0-2.87,0.56-4.21,1.38c-1.54,0.98-2.67,1.9-3.75,2.62v-4.15c-2.26,1.02-4.88,1.69-7.14,2.1V17c2.98,0.47,3.14,0.72,3.14,4
	v10.63c0,3.34-0.47,3.65-3.85,3.96v1.33h10.83v-1.33c-2.51-0.31-2.93-0.62-2.93-3.96V19.57c1.54-1.29,3.54-2.67,5.6-2.67
	c3.13,0,4.46,2.1,4.46,5.9v8.83c0,3.39-0.46,3.65-3.64,3.96v1.33h10.98v-1.33c-2.83-0.31-3.29-0.62-3.29-3.85v-10
	c0-0.98-0.05-1.54-0.15-2.16c1.94-1.65,3.9-2.67,5.75-2.67c3.24,0,4.51,2.31,4.51,5.95v8.58c0,3.64-0.56,3.85-3.59,4.16v1.33H204.24
	z M230.86,36.92v-1.33c-3.03-0.26-3.39-0.56-3.39-3.96v-8.99c0-6.16-2.93-8.82-7.08-8.77c-2.78,0-5.55,1.9-7.34,3.74V0.37
	c-2.01,0.62-5.08,1.44-7.55,1.8v1.18c3.38,0.31,3.49,0.56,3.49,3.8v24.49c0,3.39-0.41,3.7-3.49,3.96l-0.05,1.33h10.88v-1.33
	c-3.02-0.31-3.28-0.67-3.28-3.96V19.41c1.43-1.64,3.39-2.62,5.34-2.62c3.44,0,5.03,2.1,5.03,6.31v8.52c0,3.34-0.41,3.65-3.39,3.96
	v1.33H230.86z M248.55,32.55c-3.23,4.05-6.77,4.98-8.36,4.98c-6.32,0-10.01-5.13-10.01-10.93c0-3.54,1.29-6.68,3.39-8.99
	c2.11-2.36,4.88-3.75,7.5-3.75h0.05c4.26,0,7.7,3.8,7.7,7.8c0,1.03-0.26,1.44-1.18,1.65c-0.87,0.15-7.28,0.66-13.4,0.87
	c0.05,6.98,4.06,9.86,7.65,9.86c2.05,0,4-0.82,5.85-2.57L248.55,32.55z M239.82,15.77c-2.31,0-4.57,2.15-5.34,6.31
	c2.88,0,5.7-0.05,8.68-0.16c0.92,0,1.23-0.3,1.23-1.02c0.05-2.67-1.69-5.13-4.52-5.13H239.82z M258.23,19.31v-5.59
	c-2.46,1.07-4.72,1.69-7.24,2.1v1.13c2.93,0.42,3.19,0.62,3.19,4.01v10.63c0,3.39-0.36,3.7-3.54,4v1.33h11.81v-1.33
	c-3.96-0.31-4.21-0.62-4.21-4v-9.39c1.13-2.87,2.77-4.42,4.1-4.42c0.82,0,1.44,0.31,2.16,1.08c0.31,0.31,0.77,0.36,1.39,0.1
	c0.98-0.46,1.64-1.48,1.64-2.51c0-1.24-1.23-2.57-2.98-2.57c-2.46,0-4.67,2.88-6.22,5.44H258.23z M282.95,20.23
	c-0.16-1.29-0.72-4.31-1.13-5.49c-1.08-0.41-2.47-0.92-4.57-0.87c-4.72,0-7.81,3.03-7.81,6.62c0,3.95,3.35,5.64,6.43,7.08
	c2.56,1.18,4.05,2.41,4.05,4.67c0,2.16-1.75,3.59-3.64,3.59c-3.08,0-5.39-2.98-6.32-6.37l-1.33,0.26c0,1.85,0.46,5.34,0.82,6.06
	c0.92,0.77,3.29,1.74,5.91,1.74c4.1,0,8.47-2.41,8.47-7.08c0-3.54-2.62-5.39-6.47-6.98c-2.31-0.98-4.36-2.21-4.36-4.47
	c0-2.01,1.38-3.54,3.34-3.54c2.52,0,4.31,2.05,5.29,5.08L282.95,20.23z M299.25,35.07l-0.46-1.34c-0.72,0.36-1.9,0.87-3.18,0.87
	c-1.28,0-2.98-0.77-2.98-4.93V16.49h5.49c0.62-0.36,0.77-1.49,0.31-2h-5.8V7.45l-0.72-0.1l-3.34,3.39v3.75h-2.36l-1.39,1.49
	l0.21,0.52h3.54v14.94c0,4.05,1.79,6.1,5.03,6.1c0.46,0,1.28-0.21,2.15-0.66L299.25,35.07z"/>
</svg>
